<?xml version="1.0" encoding="UTF-8" standalone="no"?>
<svg
   version="1.1"
   id="Layer_1"
   x="0px"
   y="0px"
   viewBox="0 0 255.9705 255.9705"
   xml:space="preserve"
   width="256"
   height="256"
   sodipodi:docname="logo.svg"
   inkscape:version="1.2.2 (b0a8486541, 2022-12-01)"
   xmlns:inkscape="http://www.inkscape.org/namespaces/inkscape"
   xmlns:sodipodi="http://sodipodi.sourceforge.net/DTD/sodipodi-0.dtd"
   xmlns="http://www.w3.org/2000/svg"
   xmlns:svg="http://www.w3.org/2000/svg"><defs
   id="defs103" /><sodipodi:namedview
   id="namedview101"
   pagecolor="#ffffff"
   bordercolor="#000000"
   borderopacity="0.25"
   inkscape:showpageshadow="2"
   inkscape:pageopacity="0.0"
   inkscape:pagecheckerboard="0"
   inkscape:deskcolor="#d1d1d1"
   showgrid="false"
   inkscape:zoom="2.0058594"
   inkscape:cx="255.75073"
   inkscape:cy="256.49854"
   inkscape:window-width="3440"
   inkscape:window-height="1371"
   inkscape:window-x="0"
   inkscape:window-y="0"
   inkscape:window-maximized="1"
   inkscape:current-layer="Layer_1" />
<g
   id="g44"
   transform="matrix(0.49999931,0,0,0.49999931,7.2986049e-5,0)">
	<path
   style="fill:#8ec853"
   d="m 52.439,210.79 c 23.999,0 43.454,9.727 43.454,21.727 0,11.999 -19.455,21.727 -43.454,21.727 -12.965,0 -24.604,-6.341 -32.566,-12.172 -6.459,-4.73 -6.459,-14.38 0,-19.11 7.962,-5.831 19.601,-12.172 32.566,-12.172 z"
   id="path2" />
	<path
   style="fill:#707c8a"
   d="m 40.325,406.658 33.374,88.304 c 1.839,4.865 7.273,7.318 12.138,5.479 l 133.799,-50.569 -36.704,-97.113 z"
   id="path4" />
	<path
   style="fill:#fbebcf"
   d="m 7.897,420.766 c 4.13,-36.203 49.669,-45.104 64.812,-13.104 l 24.436,51.502 c 10.301,21.671 -6.295,47.727 -29.344,45.097 -10.439,-1.197 -20.075,-6.354 -27.168,-14.54 l -18.39,-21.21 C 10.68,455.178 5.947,437.285 7.897,420.766 Z"
   id="path6" />
	<path
   style="fill:#707c8a"
   d="m 472.875,403.327 -33.53,88.715 c -2.448,6.477 -9.684,9.744 -16.161,7.296 l -76.861,-29.049 37.963,-100.444 z"
   id="path8" />
	<path
   style="fill:#8894a2"
   d="m 421.62,351.367 c 0,30.28 -16,69.77 -53.91,116.88 -23.261,33.704 -73.356,25.201 -89.27,-14.32 l -80.47,-57.96 c -82.98,-104.92 58,-189.99 58,-189.99 l 0.49,-1.71 c 10.298,1.246 -0.004,0.793 100.78,2.63 l 22.58,24.83 c 30.373,33.386 41.8,74.505 41.8,119.64 z"
   id="path10" />
	<path
   style="fill:#707c8a"
   d="m 251.15,434.277 -138.41,-99.71 c -0.02,-0.86 -0.03,-1.73 -0.03,-2.6 0,-22.12 -22.13,-49.83 -17.54,-69.41 1.35,-5.75 2.43,-11.57 3.05,-17.45 1.58,-15.08 7.04,-19.13 7.04,-19.13 l 53.54,-22.7 62.76,1.15 c 11.42,-1.469 22.762,-1.561 34.2,-0.24 -21.299,33.32 -74.799,135.25 -4.61,230.09 z"
   id="path12" />
	<path
   style="fill:#fef5e6"
   d="m 321.461,353.407 c -14.214,52.944 -43.823,70.057 -43.02,100.52 -2.89,0.77 -5.83,1.47 -8.82,2.08 -165.29,-47.76 -44.67,-184.52 -44.67,-184.52 15.553,-1.202 32.47,-0.106 48.67,3.66 33.896,7.879 57.299,41.903 47.84,78.26 z"
   id="path14" />
	<path
   style="fill:#fbebcf"
   d="m 269.62,456.007 c -10.35,2.12 -21.24,3.25 -32.47,3.25 -65.57,0 -119.27,-38.48 -123.91,-87.25 -4.154,-42.674 29.175,-76.833 70.21,-91.75 12.77,-4.65 26.76,-7.69 41.5,-8.77 -15.189,51.59 -16.659,121.05 44.67,184.52 z"
   id="path16" />
	<path
   style="fill:#b0da87"
   d="m 263.501,399.027 c -5.88,5.88 -15.42,5.88 -21.3,0 l -21.78,-21.78 c -20.66,-22.52 -4.28,-46.88 -4.28,-46.88 l 47.36,47.36 c 5.879,5.88 5.879,15.42 0,21.3 z"
   id="path18" />
	<path
   style="fill:#99ce64"
   d="m 223.611,380.437 -211.7,-211.7 c -5.88,-5.89 -5.88,-15.42 0,-21.3 5.879,-5.879 15.421,-5.879 21.3,0 l 182.93,182.93 c 0.04,16.16 2.229,33 7.47,50.07 z"
   id="path20" />
	<path
   style="fill:#fef5e6"
   d="m 504.044,420.766 c -4.13,-36.203 -49.669,-45.104 -64.812,-13.104 l -24.436,51.502 c -10.301,21.671 6.295,47.727 29.344,45.097 10.439,-1.197 20.076,-6.354 27.168,-14.54 l 18.39,-21.21 c 11.565,-13.334 16.296,-31.225 14.346,-47.745 z"
   id="path22" />
	<ellipse
   style="fill:#8894a2"
   cx="346.323"
   cy="48.908001"
   rx="45.175999"
   ry="41.411999"
   id="ellipse24" />
	<ellipse
   style="fill:#707c8a"
   cx="165.618"
   cy="48.908001"
   rx="45.175999"
   ry="41.411999"
   id="ellipse26" />
	<path
   style="fill:#fef5e6"
   d="m 399.031,143.027 c 0,69.283 -95.613,104.697 -164.42,96.59 -245.53,-90.56 -4.62,-227.55 -2.11,-228.97 0.01,-0.01 0.02,-0.01 0.02,-0.01 8.02,-2.04 15.9,-3.14 23.45,-3.14 60.82,0 143.06,71.07 143.06,135.53 z"
   id="path28" />
	<path
   style="fill:#fbebcf"
   d="m 234.611,239.617 c -57.05,-6.69 -121.7,-39.45 -121.7,-96.59 0,-56.46 63.08,-117.98 119.61,-132.39 -45.901,36.93 -132.08,129.71 2.09,228.98 z"
   id="path30" />
	<path
   style="fill:#8894a2"
   d="m 350.064,166.314 v 0 c -15.68,13.734 -39.525,12.157 -53.259,-3.523 l -16.917,-19.313 c -13.734,-15.68 -12.157,-39.525 3.523,-53.259 v 0 c 15.68,-13.734 39.525,-12.157 53.259,3.523 l 16.917,19.313 c 13.734,15.68 12.157,39.524 -3.523,53.259 z"
   id="path32" />
	<path
   style="fill:#8894a2"
   d="m 232.051,143.477 -16.92,19.31 c -10.46,11.95 -26.79,15.71 -40.9,10.75 -36.44,-25.2 -9.56,-67.49 -9.05,-68.28 l 10.09,-11.51 c 13.732,-15.683 37.578,-17.263 53.26,-3.53 15.68,13.74 17.26,37.58 3.52,53.26 z"
   id="path34" />
	<path
   style="fill:#707c8a"
   d="m 174.231,173.537 c -4.42,-1.55 -8.62,-3.95 -12.35,-7.22 -15.68,-13.74 -17.26,-37.58 -3.53,-53.26 l 6.84,-7.81 c -4.75,21.01 -3.24,44.06 9.04,68.29 z"
   id="path36" />
	<path
   style="fill:#4e5660"
   d="m 279.499,141.943 c 0.046,-14.555 -10.495,-15.956 -23.502,-15.997 -13.007,-0.041 -23.556,1.294 -23.602,15.849 -0.109,34.874 46.995,35.022 47.104,0.148 z"
   id="path38" />
	<path
   style="fill:#646f7e"
   d="m 194.598,355.292 v 0 c -15.354,22.245 -45.834,27.832 -68.079,12.478 L 73.134,330.924 C 50.889,315.57 45.302,285.09 60.656,262.845 v 0 C 76.01,240.6 106.49,235.013 128.735,250.367 l 53.385,36.846 c 22.245,15.354 27.831,45.834 12.478,68.079 z"
   id="path40" />
	<path
   style="fill:#8ec853"
   d="m 111.097,153.382 c -7.669,22.741 -23.103,38.067 -34.473,34.233 -11.37,-3.834 -14.371,-25.378 -6.702,-48.118 4.143,-12.285 13.871,-21.288 21.94,-26.969 6.546,-4.609 15.69,-1.525 18.108,6.107 2.98,9.406 5.27,22.461 1.127,34.747 z"
   id="path42" />
</g>
<g
   id="g98"
   transform="matrix(0.49999931,0,0,0.49999931,7.2986049e-5,0)">
	<path
   style="fill:none;stroke:#000000;stroke-width:15;stroke-linecap:round;stroke-linejoin:round;stroke-miterlimit:10"
   d="m 70.561,252.271 c -0.01,0 -0.01,0 -0.01,0 -5.51,1.27 -11.65,1.98 -18.11,1.98 -12.97,0 -24.61,-6.34 -32.57,-12.17 -6.46,-4.73 -6.46,-14.38 0,-19.11 7.96,-5.84 19.6,-12.18 32.57,-12.18 0.52,0 1.03,0 1.54,0.02"
   id="path46" />
	
		<line
   style="fill:none;stroke:#000000;stroke-width:15;stroke-linecap:round;stroke-linejoin:round;stroke-miterlimit:10"
   x1="114.201"
   y1="378.741"
   x2="65.271004"
   y2="397.23099"
   id="line48" />
	<path
   style="fill:none;stroke:#000000;stroke-width:15;stroke-linecap:round;stroke-linejoin:round;stroke-miterlimit:10"
   d="m 77.021,503.731 0.01,0.04 0.26,-0.1 6.42,-2.42 c 0.02,-0.01 0.03,-0.02 0.05,-0.03 l 120.11,-45.38"
   id="path50" />
	<path
   style="fill:none;stroke:#000000;stroke-width:15;stroke-linecap:round;stroke-linejoin:round;stroke-miterlimit:10"
   d="m 7.662,423.424 c 0.061,-0.88 0.136,-1.76 0.233,-2.638 l 0.002,-0.016 c 2.302,-20.179 19.438,-34.796 38.274,-32.648 11.417,1.302 21.378,8.638 26.538,19.543 l 24.436,51.502 c 2.572,5.41 3.573,11.54 2.878,17.614 -1.939,16.988 -16.365,29.293 -32.222,27.484 -10.439,-1.197 -20.075,-6.354 -27.168,-14.54 l -18.39,-21.21 C 12.201,456.936 6.975,441.562 7.542,425.784 c 0.007,-0.207 0.015,-0.413 0.023,-0.62 0.026,-0.58 0.055,-1.16 0.097,-1.74 z"
   id="path52" />
	<path
   style="fill:none;stroke:#000000;stroke-width:15;stroke-linecap:round;stroke-linejoin:round;stroke-miterlimit:10"
   d="m 434.921,503.731 -0.01,0.04 -0.24,-0.09 c -0.01,0 -0.02,-0.01 -0.02,-0.01 l -6.38,-2.41 c -0.03,-0.01 -0.06,-0.02 -0.09,-0.04 l -66.98,-25.31"
   id="path54" />
	
		<line
   style="fill:none;stroke:#000000;stroke-width:15;stroke-linecap:round;stroke-linejoin:round;stroke-miterlimit:10"
   x1="449.75101"
   y1="394.591"
   x2="416.83099"
   y2="382.151"
   id="line56" />
	<path
   style="fill:none;stroke:#000000;stroke-width:15;stroke-linecap:round;stroke-linejoin:round;stroke-miterlimit:10"
   d="m 405.432,270.155 c -6.541,-13.993 -15.178,-26.956 -25.611,-38.425 l -19.81,-21.78"
   id="path58" />
	<path
   style="fill:none;stroke:#000000;stroke-width:15;stroke-linecap:round;stroke-linejoin:round;stroke-miterlimit:10"
   d="m 278.441,453.931 c 3.06,9.43 9.19,18.42 18.53,24.74 9.73,6.6 21.24,10.71 31.15,10.71 12.43,0.01 24.19,-4.92 33.08,-13.47 2.4,-2.3 4.58,-4.86 6.51,-7.66 26.15,-32.5 41.88,-61.38 49.12,-86.1 3.25,-11.12 4.79,-21.39 4.79,-30.78 0,-12.57 -1.06,-28.62 -5.06,-47.83"
   id="path60" />
	
		<line
   style="fill:none;stroke:#000000;stroke-width:15;stroke-linecap:round;stroke-linejoin:round;stroke-miterlimit:10"
   x1="148.661"
   y1="207.58099"
   x2="109.821"
   y2="224.05099"
   id="line62" />
	<path
   style="fill:none;stroke:#000000;stroke-width:15;stroke-linecap:round;stroke-linejoin:round;stroke-miterlimit:10"
   d="m 113.211,358.591 c -0.2,2.17 -0.3,4.35 -0.3,6.56 0,2.31 0.11,4.6 0.33,6.86 0.22,2.27 0.54,4.51 0.96,6.73 7.09,37.14 42.81,67.26 89.67,77.1 10.59,2.23 21.75,3.42 33.28,3.42 14.47,0 28.37,-1.87 41.29,-5.33 -0.24,-9.1 2.08,-18.19 6.84,-26.29 l 17.54,-29.86 c 8.25,-14.02 14.5,-28.95 18.64,-44.37 0.19,-0.73 0.38,-1.45 0.55,-2.18 7.96,-34.19 -14.19,-68.13 -48.39,-76.08 -11.53,-2.68 -23.78,-4.12 -36.47,-4.12 -19.23,0 -37.45,3.31 -53.7,9.23 -2.47,0.9 -4.89,1.85 -7.26,2.87"
   id="path64" />
	<path
   style="fill:none;stroke:#000000;stroke-width:15;stroke-linecap:round;stroke-linejoin:round;stroke-miterlimit:10"
   d="m 201.921,316.151 61.58,61.58 c 5.88,5.88 5.88,15.42 0,21.3 -5.88,5.88 -15.42,5.88 -21.3,0 l -46.09,-46.09"
   id="path66" />
	<path
   style="fill:none;stroke:#000000;stroke-width:15;stroke-linecap:round;stroke-linejoin:round;stroke-miterlimit:10"
   d="m 86.921,243.751 -75.01,-75.01 c -5.88,-5.89 -5.88,-15.42 0,-21.3 2.94,-2.94 6.8,-4.41 10.65,-4.41 3.85,0 7.71,1.47 10.65,4.41 l 119.44,119.44"
   id="path68" />
	<path
   style="fill:none;stroke:#000000;stroke-width:15;stroke-linecap:round;stroke-linejoin:round;stroke-miterlimit:10"
   d="m 504.279,423.424 c -0.061,-0.88 -0.135,-1.76 -0.233,-2.638 l -0.002,-0.016 c -2.302,-20.179 -19.438,-34.796 -38.274,-32.648 -11.417,1.302 -21.378,8.638 -26.538,19.543 l -24.436,51.502 c -2.572,5.41 -3.573,11.54 -2.878,17.614 1.939,16.988 16.365,29.293 32.222,27.484 10.439,-1.197 20.076,-6.354 27.169,-14.54 l 18.39,-21.21 c 10.042,-11.579 15.268,-26.953 14.701,-42.731 -0.007,-0.207 -0.015,-0.413 -0.023,-0.62 -0.027,-0.58 -0.056,-1.16 -0.098,-1.74 z"
   id="path70" />
	<path
   style="fill:none;stroke:#000000;stroke-width:15;stroke-linecap:round;stroke-linejoin:round;stroke-miterlimit:10"
   d="m 310.981,23.121 c 8.27,-9.52 21.03,-15.62 35.34,-15.62 24.95,0 45.18,18.54 45.18,41.41 0,12.43 -5.98,23.58 -15.44,31.18"
   id="path72" />
	<path
   style="fill:none;stroke:#000000;stroke-width:15;stroke-linecap:round;stroke-linejoin:round;stroke-miterlimit:10"
   d="m 135.881,80.091 c -9.46,-7.6 -15.44,-18.75 -15.44,-31.18 0,-22.87 20.23,-41.41 45.18,-41.41 14.31,0 27.07,6.1 35.34,15.62"
   id="path74" />
	<path
   style="fill:none;stroke:#000000;stroke-width:15;stroke-linecap:round;stroke-linejoin:round;stroke-miterlimit:10"
   d="m 383.403,187.99 c -26.779,34.966 -82.86,52.922 -127.433,52.922 -60.816,0 -143.059,-33.428 -143.059,-97.882 C 112.912,78.575 195.154,7.5 255.971,7.5 c 60.817,0 143.059,71.075 143.059,135.529 0,5.457 -0.59,10.692 -1.706,15.704"
   id="path76" />
	<path
   style="fill:none;stroke:#000000;stroke-width:15;stroke-linecap:round;stroke-linejoin:round;stroke-miterlimit:10"
   d="m 279.471,142.981 c 0.13,0.17 0.28,0.34 0.42,0.5 l 16.92,19.31 c 13.73,15.68 37.57,17.26 53.25,3.53 15.68,-13.74 17.26,-37.58 3.53,-53.26 l -16.92,-19.31 c -2.2,-2.51 -4.66,-4.66 -7.31,-6.45 0,0 0,0 -0.01,0 -6.32,-4.27 -13.69,-6.43 -21.09,-6.43 -8.83,0 -17.69,3.08 -24.85,9.35 -11.1,9.72 -15.13,24.5 -11.67,37.87"
   id="path78" />
	<path
   style="fill:none;stroke:#000000;stroke-width:15;stroke-linecap:round;stroke-linejoin:round;stroke-miterlimit:10"
   d="m 255.971,173.984 v 22.588 c 0,0 15.059,15.059 30.118,0"
   id="path80" />
	<path
   style="fill:none;stroke:#000000;stroke-width:15;stroke-linecap:round;stroke-linejoin:round;stroke-miterlimit:10"
   d="m 225.851,196.571 c 15.06,15.06 30.12,0 30.12,0 v -22.59 -5.95"
   id="path82" />
	<path
   style="fill:none;stroke:#000000;stroke-width:15;stroke-linecap:round;stroke-linejoin:round;stroke-miterlimit:10"
   d="m 232.411,143.051 c -0.11,0.15 -0.24,0.29 -0.36,0.43 l -16.92,19.31 c -13.73,15.68 -37.57,17.26 -53.25,3.53 -15.68,-13.74 -17.26,-37.58 -3.53,-53.26 l 16.92,-19.31 c 4.5,-5.14 10.1,-8.77 16.13,-10.83 0.01,-0.01 0.02,-0.02 0.03,-0.01 3.96,-1.36 8.1,-2.04 12.25,-2.04 8.83,0 17.69,3.08 24.85,9.35 11.07,9.7 15.11,24.43 11.69,37.77"
   id="path84" />
	<g
   id="g92">
		<path
   style="fill:none;stroke:#000000;stroke-width:15;stroke-linecap:round;stroke-linejoin:round;stroke-miterlimit:10"
   d="m 279.499,141.947 c 0.046,-14.555 -10.495,-15.956 -23.502,-15.997 -13.007,-0.041 -23.556,1.294 -23.602,15.849 -0.109,34.874 46.995,35.022 47.104,0.148 z"
   id="path86" />
		<path
   style="fill:none;stroke:#000000;stroke-width:15;stroke-linecap:round;stroke-linejoin:round;stroke-miterlimit:10"
   d="m 207.73,134.282 c 0.058,-18.396 -27.751,-18.483 -27.808,-0.087"
   id="path88" />
		<path
   style="fill:none;stroke:#000000;stroke-width:15;stroke-linecap:round;stroke-linejoin:round;stroke-miterlimit:10"
   d="m 304.211,134.584 c 0.058,-18.396 27.866,-18.309 27.808,0.087"
   id="path90" />
	</g>
	<path
   style="fill:none;stroke:#000000;stroke-width:15;stroke-linecap:round;stroke-linejoin:round;stroke-miterlimit:10"
   d="m 53.373,279.052 c 1.375,-5.644 3.786,-11.137 7.282,-16.203 v 0 c 15.354,-22.245 45.834,-27.832 68.079,-12.478 l 53.385,36.846 c 22.245,15.354 27.832,45.834 12.478,68.079 v 0 c -15.354,22.245 -45.834,27.832 -68.079,12.478 L 73.133,330.928 c -8.161,-5.633 -14.08,-13.302 -17.546,-21.853"
   id="path94" />
	<path
   style="fill:none;stroke:#000000;stroke-width:15;stroke-linecap:round;stroke-linejoin:round;stroke-miterlimit:10"
   d="m 111.097,153.385 c -7.669,22.741 -23.103,38.067 -34.473,34.233 -11.37,-3.834 -14.371,-25.378 -6.702,-48.118 4.143,-12.285 13.871,-21.288 21.94,-26.969 6.546,-4.609 15.69,-1.525 18.108,6.107 2.98,9.407 5.27,22.462 1.127,34.747 z"
   id="path96" />
</g>















</svg>
